adventprofmm_reg_krn_t1.ufo
<glyph name="numbersign" format="1">
  <advance width="532"/>
  <unicode hex="0023"/>
  <outline>
    <contour>
      <point x="515" y="375" type="line"/>
      <point x="515" y="426" type="line"/>
      <point x="393" y="426" type="line"/>
      <point x="442" y="635" type="line"/>
      <point x="393" y="635" type="line"/>
      <point x="344" y="426" type="line"/>
      <point x="236" y="426" type="line"/>
      <point x="285" y="635" type="line"/>
      <point x="235" y="635" type="line"/>
      <point x="186" y="426" type="line"/>
      <point x="17" y="426" type="line"/>
      <point x="17" y="375" type="line"/>
      <point x="174" y="375" type="line"/>
      <point x="138" y="221" type="line"/>
      <point x="17" y="221" type="line"/>
      <point x="17" y="172" type="line"/>
      <point x="126" y="172" type="line"/>
      <point x="86" y="0" type="line"/>
      <point x="136" y="0" type="line"/>
      <point x="176" y="172" type="line"/>
      <point x="284" y="172" type="line"/>
      <point x="244" y="0" type="line"/>
      <point x="294" y="0" type="line"/>
      <point x="334" y="172" type="line"/>
      <point x="515" y="172" type="line"/>
      <point x="515" y="221" type="line"/>
      <point x="345" y="221" type="line"/>
      <point x="382" y="375" type="line"/>
    </contour>
    <contour>
      <point x="224" y="375" type="line"/>
      <point x="332" y="375" type="line"/>
      <point x="296" y="221" type="line"/>
      <point x="188" y="221" type="line"/>
    </contour>
  </outline>
</glyph>
<glyph name="quotesingle" format="1">
  <advance width="94"/>
  <unicode hex="0027"/>
  <outline>
    <contour>
      <point x="16" y="638" type="curve"/>
      <point x="28" y="534" type="line"/>
      <point x="65" y="534" type="line"/>
      <point x="77" y="638" type="line"/>
      <point x="77" y="680"/>
      <point x="16" y="680"/>
    </contour>
  </outline>
</glyph>
<glyph name="plus" format="1">
  <advance width="323"/>
  <unicode hex="002B"/>
  <outline>
    <contour>
      <point x="137" y="361" type="line"/>
      <point x="16" y="361" type="line"/>
      <point x="16" y="311" type="line"/>
      <point x="137" y="311" type="line"/>
      <point x="137" y="190" type="line"/>
      <point x="187" y="190" type="line"/>
      <point x="187" y="311" type="line"/>
      <point x="306" y="311" type="line"/>
      <point x="306" y="361" type="line"/>
      <point x="187" y="361" type="line"/>
      <point x="187" y="480" type="line"/>
      <point x="137" y="480" type="line"/>
    </contour>
  </outline>
</glyph>
<glyph name="R" format="1">
  <advance width="429"/>
  <unicode hex="0052"/>
  <outline>
    <contour>
      <point x="234" y="635" type="curve" smooth="yes"/>
      <point x="20" y="635" type="line"/>
      <point x="20" y="0" type="line"/>
      <point x="71" y="0" type="line"/>
      <point x="71" y="222" type="line"/>
      <point x="234" y="222" type="line" smooth="yes"/>
      <point x="252" y="222"/>
      <point x="269" y="223"/>
      <point x="284" y="226" type="curve"/>
      <point x="363" y="0" type="line"/>
      <point x="414" y="0" type="line"/>
      <point x="330" y="240" type="line"/>
      <point x="386" y="267"/>
      <point x="414" y="326"/>
      <point x="414" y="429" type="curve" smooth="yes"/>
      <point x="414" y="585"/>
      <point x="349" y="635"/>
    </contour>
    <contour>
      <point x="238" y="272" type="curve" smooth="yes"/>
      <point x="71" y="272" type="line"/>
      <point x="71" y="586" type="line"/>
      <point x="238" y="586" type="line" smooth="yes"/>
      <point x="309" y="586"/>
      <point x="363" y="557"/>
      <point x="363" y="429" type="curve" smooth="yes"/>
      <point x="363" y="291"/>
      <point x="307" y="272"/>
    </contour>
  </outline>
</glyph>
<glyph name="X" format="1">
  <advance width="472"/>
  <unicode hex="0058"/>
  <outline>
    <contour>
      <point x="24" y="635" type="line"/>
      <point x="207" y="319" type="line"/>
      <point x="7" y="0" type="line"/>
      <point x="69" y="0" type="line"/>
      <point x="237" y="266" type="line"/>
      <point x="404" y="0" type="line"/>
      <point x="466" y="0" type="line"/>
      <point x="268" y="319" type="line"/>
      <point x="452" y="635" type="line"/>
      <point x="395" y="635" type="line"/>
      <point x="237" y="368" type="line"/>
      <point x="81" y="635" type="line"/>
    </contour>
  </outline>
</glyph>
<glyph name="l" format="1">
  <advance width="91"/>
  <unicode hex="006C"/>
  <outline>
    <contour>
      <point x="70" y="635" type="line"/>
      <point x="20" y="635" type="line"/>
      <point x="20" y="0" type="line"/>
      <point x="70" y="0" type="line"/>
    </contour>
  </outline>
</glyph>
<glyph name="z" format="1">
  <advance width="355"/>
  <unicode hex="007A"/>
  <outline>
    <contour>
      <point x="20" y="408" type="line"/>
      <point x="261" y="408" type="line"/>
      <point x="12" y="45" type="line"/>
      <point x="12" y="0" type="line"/>
      <point x="345" y="0" type="line"/>
      <point x="345" y="46" type="line"/>
      <point x="75" y="46" type="line"/>
      <point x="326" y="409" type="line"/>
      <point x="326" y="454" type="line"/>
      <point x="20" y="454" type="line"/>
    </contour>
  </outline>
</glyph>
<glyph name="asciitilde" format="1">
  <advance width="315"/>
  <unicode hex="007E"/>
  <outline>
    <contour>
      <point x="297" y="277" type="curve"/>
      <point x="275" y="315" type="line"/>
      <point x="260" y="299"/>
      <point x="242" y="289"/>
      <point x="219" y="288" type="curve" smooth="yes"/>
      <point x="176" y="287"/>
      <point x="136" y="321"/>
      <point x="91" y="321" type="curve" smooth="yes"/>
      <point x="67" y="321"/>
      <point x="43" y="312"/>
      <point x="16" y="284" type="curve"/>
      <point x="37" y="246" type="line"/>
      <point x="59" y="266"/>
      <point x="79" y="272"/>
      <point x="98" y="271" type="curve" smooth="yes"/>
      <point x="139" y="269"/>
      <point x="178" y="238"/>
      <point x="221" y="238" type="curve" smooth="yes"/>
      <point x="244" y="237"/>
      <point x="269" y="247"/>
    </contour>
  </outline>
</glyph>
<glyph name="yen" format="1">
  <advance width="456"/>
  <unicode hex="00A5"/>
  <outline>
    <contour>
      <point x="203" y="135" type="line"/>
      <point x="83" y="135" type="line"/>
      <point x="83" y="85" type="line"/>
      <point x="203" y="85" type="line"/>
      <point x="203" y="0" type="line"/>
      <point x="254" y="0" type="line"/>
      <point x="254" y="85" type="line"/>
      <point x="373" y="85" type="line"/>
      <point x="373" y="135" type="line"/>
      <point x="254" y="135" type="line"/>
      <point x="254" y="180" type="line"/>
      <point x="373" y="180" type="line"/>
      <point x="373" y="230" type="line"/>
      <point x="254" y="230" type="line"/>
      <point x="254" y="310" type="line"/>
      <point x="442" y="635" type="line"/>
      <point x="385" y="635" type="line"/>
      <point x="227" y="368" type="line"/>
      <point x="72" y="635" type="line"/>
      <point x="14" y="635" type="line"/>
      <point x="203" y="308" type="line"/>
      <point x="203" y="230" type="line"/>
      <point x="83" y="230" type="line"/>
      <point x="83" y="180" type="line"/>
      <point x="203" y="180" type="line"/>
    </contour>
  </outline>
</glyph>
<glyph name="dieresis" format="1">
  <advance width="345"/>
  <unicode hex="00A8"/>
  <outline>
    <contour>
      <point x="27" y="673" type="curve" smooth="yes"/>
      <point x="11" y="673"/>
      <point x="-3" y="659"/>
      <point x="-3" y="642" type="curve" smooth="yes"/>
      <point x="-3" y="625"/>
      <point x="11" y="612"/>
      <point x="27" y="612" type="curve" smooth="yes"/>
      <point x="44" y="612"/>
      <point x="58" y="625"/>
      <point x="58" y="642" type="curve" smooth="yes"/>
      <point x="58" y="659"/>
      <point x="44" y="673"/>
    </contour>
    <contour>
      <point x="171" y="673" type="curve" smooth="yes"/>
      <point x="154" y="673"/>
      <point x="141" y="659"/>
      <point x="141" y="642" type="curve" smooth="yes"/>
      <point x="141" y="625"/>
      <point x="154" y="612"/>
      <point x="171" y="612" type="curve" smooth="yes"/>
      <point x="188" y="612"/>
      <point x="201" y="625"/>
      <point x="201" y="642" type="curve" smooth="yes"/>
      <point x="201" y="659"/>
      <point x="188" y="673"/>
    </contour>
  </outline>
</glyph>
<glyph name="Egrave" format="1">
  <advance width="334"/>
  <unicode hex="00C8"/>
  <outline>
    <contour>
      <point x="320" y="45" type="line"/>
      <point x="70" y="45" type="line"/>
      <point x="70" y="324" type="line"/>
      <point x="226" y="324" type="line"/>
      <point x="243" y="374" type="line"/>
      <point x="70" y="374" type="line"/>
      <point x="70" y="587" type="line"/>
      <point x="322" y="587" type="line"/>
      <point x="322" y="635" type="line"/>
      <point x="19" y="635" type="line"/>
      <point x="19" y="0" type="line"/>
      <point x="320" y="0" type="line"/>
    </contour>
    <contour>
      <point x="106" y="747" type="curve"/>
      <point x="154" y="675" type="line"/>
      <point x="186" y="675" type="line"/>
      <point x="152" y="772" type="line"/>
      <point x="147" y="789"/>
      <point x="128" y="799"/>
      <point x="112" y="790" type="curve" smooth="yes"/>
      <point x="96" y="781"/>
      <point x="95" y="760"/>
    </contour>
  </outline>
</glyph>
<glyph name="Igrave" format="1">
  <advance width="162"/>
  <unicode hex="00CC"/>
  <outline>
    <contour>
      <point x="63" y="0" type="line"/>
      <point x="114" y="0" type="line"/>
      <point x="114" y="635" type="line"/>
      <point x="2" y="635" type="line"/>
      <point x="2" y="590" type="line"/>
      <point x="63" y="588" type="line"/>
    </contour>
    <contour>
      <point x="105" y="770" type="curve"/>
      <point x="70" y="673" type="line"/>
      <point x="102" y="673" type="line"/>
      <point x="151" y="745" type="line"/>
      <point x="162" y="758"/>
      <point x="161" y="779"/>
      <point x="145" y="788" type="curve" smooth="yes"/>
      <point x="129" y="797"/>
      <point x="110" y="787"/>
    </contour>
  </outline>
</glyph>
<glyph name="ccedilla" format="1">
  <advance width="313"/>
  <unicode hex="00E7"/>
  <outline>
    <contour>
      <point x="286" y="391" type="curve"/>
      <point x="300" y="433" type="line"/>
      <point x="248" y="457"/>
      <point x="187" y="469"/>
      <point x="135" y="458" type="curve" smooth="yes"/>
      <point x="94" y="449"/>
      <point x="59" y="427"/>
      <point x="35" y="387" type="curve" smooth="yes"/>
      <point x="18" y="358"/>
      <point x="12" y="329"/>
      <point x="10" y="289" type="curve"/>
      <point x="10" y="157" type="line" smooth="yes"/>
      <point x="10" y="68"/>
      <point x="50" y="21"/>
      <point x="112" y="1" type="curve" smooth="yes"/>
      <point x="166" y="-16"/>
      <point x="241" y="-12"/>
      <point x="302" y="5" type="curve"/>
      <point x="292" y="50" type="line"/>
      <point x="292" y="50"/>
      <point x="181" y="24"/>
      <point x="123" y="47" type="curve" smooth="yes"/>
      <point x="75" y="65"/>
      <point x="60" y="108"/>
      <point x="60" y="168" type="curve" smooth="yes"/>
      <point x="60" y="277" type="line" smooth="yes"/>
      <point x="60" y="309"/>
      <point x="66" y="337"/>
      <point x="77" y="358" type="curve" smooth="yes"/>
      <point x="92" y="387"/>
      <point x="115" y="405"/>
      <point x="143" y="412" type="curve" smooth="yes"/>
      <point x="182" y="422"/>
      <point x="243" y="411"/>
    </contour>
    <contour>
      <point x="174" y="-35" type="curve" smooth="yes"/>
      <point x="166" y="-36"/>
      <point x="158" y="-36"/>
      <point x="150" y="-37" type="curve"/>
      <point x="174" y="3" type="line"/>
      <point x="129" y="3" type="line"/>
      <point x="92" y="-59" type="line"/>
      <point x="105" y="-86" type="line"/>
      <point x="129" y="-84"/>
      <point x="152" y="-80"/>
      <point x="172" y="-80" type="curve" smooth="yes"/>
      <point x="203" y="-79"/>
      <point x="225" y="-86"/>
      <point x="225" y="-117" type="curve" smooth="yes"/>
      <point x="225" y="-154"/>
      <point x="196" y="-164"/>
      <point x="160" y="-164" type="curve" smooth="yes"/>
      <point x="136" y="-164"/>
      <point x="109" y="-159"/>
      <point x="84" y="-153" type="curve"/>
      <point x="78" y="-180"/>
      <point x="80" y="-172"/>
      <point x="74" y="-197" type="curve"/>
      <point x="76" y="-198"/>
      <point x="123" y="-209"/>
      <point x="166" y="-209" type="curve" smooth="yes"/>
      <point x="238" y="-209"/>
      <point x="270" y="-164"/>
      <point x="270" y="-120" type="curve" smooth="yes"/>
      <point x="270" y="-74"/>
      <point x="235" y="-28"/>
    </contour>
  </outline>
</glyph>
<glyph name="divide" format="1">
  <advance width="323"/>
  <unicode hex="00F7"/>
  <outline>
    <contour>
      <point x="306" y="372" type="line"/>
      <point x="16" y="372" type="line"/>
      <point x="16" y="323" type="line"/>
      <point x="306" y="323" type="line"/>
    </contour>
    <contour>
      <point x="162" y="495" type="curve" smooth="yes"/>
      <point x="145" y="495"/>
      <point x="132" y="481"/>
      <point x="132" y="464" type="curve" smooth="yes"/>
      <point x="132" y="447"/>
      <point x="145" y="434"/>
      <point x="162" y="434" type="curve" smooth="yes"/>
      <point x="179" y="434"/>
      <point x="193" y="447"/>
      <point x="193" y="464" type="curve" smooth="yes"/>
      <point x="193" y="481"/>
      <point x="179" y="495"/>
    </contour>
    <contour>
      <point x="162" y="261" type="curve" smooth="yes"/>
      <point x="145" y="261"/>
      <point x="132" y="248"/>
      <point x="132" y="231" type="curve" smooth="yes"/>
      <point x="132" y="214"/>
      <point x="145" y="201"/>
      <point x="162" y="201" type="curve" smooth="yes"/>
      <point x="179" y="201"/>
      <point x="193" y="214"/>
      <point x="193" y="231" type="curve" smooth="yes"/>
      <point x="193" y="248"/>
      <point x="179" y="261"/>
    </contour>
  </outline>
</glyph>
<glyph name="yacute" format="1">
  <advance width="389"/>
  <unicode hex="00FD"/>
  <outline>
    <contour>
      <point x="378" y="425" type="curve"/>
      <point x="360" y="464" type="line"/>
      <point x="316" y="449"/>
      <point x="297" y="412"/>
      <point x="297" y="371" type="curve" smooth="yes"/>
      <point x="297" y="157" type="line" smooth="yes"/>
      <point x="297" y="93"/>
      <point x="246" y="40"/>
      <point x="182" y="40" type="curve" smooth="yes"/>
      <point x="125" y="40"/>
      <point x="64" y="63"/>
      <point x="64" y="146" type="curve" smooth="yes"/>
      <point x="64" y="454" type="line"/>
      <point x="13" y="454" type="line"/>
      <point x="13" y="143" type="line" smooth="yes"/>
      <point x="13" y="40"/>
      <point x="71" y="-8"/>
      <point x="171" y="-8" type="curve" smooth="yes"/>
      <point x="216" y="-8"/>
      <point x="267" y="9"/>
      <point x="297" y="45" type="curve"/>
      <point x="297" y="-55" type="line" smooth="yes"/>
      <point x="297" y="-81"/>
      <point x="292" y="-102"/>
      <point x="280" y="-118" type="curve" smooth="yes"/>
      <point x="270" y="-132"/>
      <point x="256" y="-143"/>
      <point x="238" y="-150" type="curve"/>
      <point x="253" y="-189" type="line"/>
      <point x="282" y="-179"/>
      <point x="304" y="-167"/>
      <point x="320" y="-150" type="curve" smooth="yes"/>
      <point x="340" y="-127"/>
      <point x="348" y="-97"/>
      <point x="348" y="-56" type="curve" smooth="yes"/>
      <point x="348" y="370" type="line" smooth="yes"/>
      <point x="348" y="407"/>
      <point x="361" y="418"/>
    </contour>
    <contour>
      <point x="216" y="591" type="curve"/>
      <point x="181" y="494" type="line"/>
      <point x="213" y="494" type="line"/>
      <point x="262" y="565" type="line"/>
      <point x="273" y="579"/>
      <point x="272" y="600"/>
      <point x="256" y="609" type="curve" smooth="yes"/>
      <point x="240" y="618"/>
      <point x="221" y="608"/>
    </contour>
  </outline>
</glyph>
<glyph name="lcommaaccent" format="1">
  <advance width="98"/>
  <unicode hex="013C"/>
  <outline>
    <contour>
      <point x="73" y="635" type="line"/>
      <point x="23" y="635" type="line"/>
      <point x="23" y="0" type="line"/>
      <point x="73" y="0" type="line"/>
    </contour>
    <contour>
      <point x="17" y="-180" type="curve"/>
      <point x="33" y="-191" type="line"/>
      <point x="51" y="-174"/>
      <point x="81" y="-139"/>
      <point x="81" y="-82" type="curve" smooth="yes"/>
      <point x="81" y="-64"/>
      <point x="67" y="-51"/>
      <point x="51" y="-51" type="curve" smooth="yes"/>
      <point x="34" y="-51"/>
      <point x="20" y="-65"/>
      <point x="20" y="-82" type="curve" smooth="yes"/>
      <point x="20" y="-97"/>
      <point x="31" y="-109"/>
      <point x="46" y="-112" type="curve"/>
      <point x="44" y="-131"/>
      <point x="37" y="-156"/>
    </contour>
  </outline>
</glyph>
<glyph name="ncaron" format="1">
  <advance width="368"/>
  <unicode hex="0148"/>
  <outline>
    <contour>
      <point x="302" y="311" type="curve" smooth="yes"/>
      <point x="302" y="0" type="line"/>
      <point x="352" y="0" type="line"/>
      <point x="352" y="314" type="line" smooth="yes"/>
      <point x="352" y="409"/>
      <point x="294" y="462"/>
      <point x="194" y="462" type="curve" smooth="yes"/>
      <point x="149" y="462"/>
      <point x="103" y="447"/>
      <point x="68" y="423" type="curve"/>
      <point x="68" y="454" type="line"/>
      <point x="17" y="454" type="line"/>
      <point x="17" y="0" type="line"/>
      <point x="68" y="0" type="line"/>
      <point x="68" y="385" type="line"/>
      <point x="105" y="406"/>
      <point x="143" y="416"/>
      <point x="184" y="416" type="curve" smooth="yes"/>
      <point x="242" y="416"/>
      <point x="302" y="393"/>
    </contour>
    <contour>
      <point x="66" y="612" type="line"/>
      <point x="183" y="498" type="line"/>
      <point x="302" y="613" type="line"/>
      <point x="267" y="648" type="line"/>
      <point x="183" y="567" type="line"/>
      <point x="102" y="647" type="line"/>
    </contour>
  </outline>
</glyph>
<glyph name="racute" format="1">
  <advance width="269"/>
  <unicode hex="0155"/>
  <outline>
    <contour>
      <point x="259" y="417" type="curve"/>
      <point x="263" y="461" type="line"/>
      <point x="263" y="461"/>
      <point x="244" y="465"/>
      <point x="222" y="464" type="curve" smooth="yes"/>
      <point x="156" y="461"/>
      <point x="112" y="444"/>
      <point x="67" y="424" type="curve"/>
      <point x="67" y="454" type="line"/>
      <point x="16" y="454" type="line"/>
      <point x="16" y="0" type="line"/>
      <point x="67" y="0" type="line"/>
      <point x="67" y="371" type="line"/>
      <point x="101" y="394"/>
      <point x="169" y="415"/>
      <point x="221" y="418" type="curve" smooth="yes"/>
      <point x="240" y="419"/>
      <point x="259" y="417"/>
    </contour>
    <contour>
      <point x="141" y="590" type="curve" smooth="yes"/>
      <point x="107" y="493" type="line"/>
      <point x="139" y="493" type="line"/>
      <point x="187" y="565" type="line"/>
      <point x="199" y="578"/>
      <point x="197" y="599"/>
      <point x="181" y="608" type="curve" smooth="yes"/>
      <point x="165" y="617"/>
      <point x="147" y="607"/>
    </contour>
  </outline>
</glyph>
<glyph name="rcaron" format="1">
  <advance width="274"/>
  <unicode hex="0159"/>
  <outline>
    <contour>
      <point x="261" y="417" type="curve"/>
      <point x="265" y="461" type="line"/>
      <point x="265" y="461"/>
      <point x="246" y="465"/>
      <point x="224" y="464" type="curve" smooth="yes"/>
      <point x="158" y="461"/>
      <point x="114" y="444"/>
      <point x="69" y="424" type="curve"/>
      <point x="69" y="454" type="line"/>
      <point x="18" y="454" type="line"/>
      <point x="18" y="0" type="line"/>
      <point x="69" y="0" type="line"/>
      <point x="69" y="371" type="line"/>
      <point x="103" y="394"/>
      <point x="171" y="415"/>
      <point x="223" y="418" type="curve" smooth="yes"/>
      <point x="242" y="419"/>
      <point x="261" y="417"/>
    </contour>
    <contour>
      <point x="25" y="608" type="line"/>
      <point x="141" y="493" type="line"/>
      <point x="261" y="609" type="line"/>
      <point x="226" y="644" type="line"/>
      <point x="141" y="562" type="line"/>
      <point x="60" y="642" type="line"/>
    </contour>
  </outline>
</glyph>
<glyph name="Tbar" format="1">
  <advance width="386"/>
  <unicode hex="0166"/>
  <outline>
    <contour>
      <point x="163" y="344" type="line"/>
      <point x="8" y="344" type="line"/>
      <point x="8" y="293" type="line"/>
      <point x="163" y="293" type="line"/>
      <point x="163" y="0" type="line"/>
      <point x="213" y="0" type="line"/>
      <point x="213" y="293" type="line"/>
      <point x="371" y="293" type="line"/>
      <point x="371" y="344" type="line"/>
      <point x="213" y="344" type="line"/>
      <point x="213" y="589" type="line"/>
      <point x="373" y="589" type="line"/>
      <point x="373" y="635" type="line"/>
      <point x="8" y="635" type="line"/>
      <point x="8" y="589" type="line"/>
      <point x="163" y="589" type="line"/>
    </contour>
  </outline>
</glyph>
<glyph name="utilde" format="1">
  <advance width="367"/>
  <unicode hex="0169"/>
  <outline>
    <contour>
      <point x="298" y="44" type="curve"/>
      <point x="298" y="0" type="line"/>
      <point x="349" y="0" type="line"/>
      <point x="349" y="454" type="line"/>
      <point x="298" y="454" type="line"/>
      <point x="298" y="156" type="line" smooth="yes"/>
      <point x="298" y="92"/>
      <point x="247" y="40"/>
      <point x="183" y="40" type="curve" smooth="yes"/>
      <point x="125" y="40"/>
      <point x="65" y="62"/>
      <point x="65" y="145" type="curve" smooth="yes"/>
      <point x="65" y="454" type="line"/>
      <point x="14" y="454" type="line"/>
      <point x="14" y="142" type="line" smooth="yes"/>
      <point x="14" y="39"/>
      <point x="71" y="-9"/>
      <point x="172" y="-9" type="curve" smooth="yes"/>
      <point x="217" y="-9"/>
      <point x="267" y="8"/>
    </contour>
    <contour>
      <point x="300" y="525" type="curve"/>
      <point x="281" y="568" type="line"/>
      <point x="269" y="558"/>
      <point x="250" y="550"/>
      <point x="233" y="550" type="curve" smooth="yes"/>
      <point x="221" y="550"/>
      <point x="179" y="573"/>
      <point x="135" y="573" type="curve" smooth="yes"/>
      <point x="110" y="573"/>
      <point x="85" y="566"/>
      <point x="64" y="544" type="curve"/>
      <point x="84" y="502" type="line"/>
      <point x="98" y="512"/>
      <point x="108" y="519"/>
      <point x="126" y="520" type="curve" smooth="yes"/>
      <point x="153" y="522"/>
      <point x="193" y="498"/>
      <point x="235" y="498" type="curve" smooth="yes"/>
      <point x="257" y="498"/>
      <point x="279" y="505"/>
    </contour>
  </outline>
</glyph>
<glyph name="uring" format="1">
  <advance width="366"/>
  <unicode hex="016F"/>
  <outline>
    <contour>
      <point x="298" y="44" type="curve"/>
      <point x="298" y="0" type="line"/>
      <point x="349" y="0" type="line"/>
      <point x="349" y="454" type="line"/>
      <point x="298" y="454" type="line"/>
      <point x="298" y="156" type="line" smooth="yes"/>
      <point x="298" y="92"/>
      <point x="247" y="40"/>
      <point x="183" y="40" type="curve" smooth="yes"/>
      <point x="125" y="40"/>
      <point x="65" y="62"/>
      <point x="65" y="145" type="curve" smooth="yes"/>
      <point x="65" y="454" type="line"/>
      <point x="14" y="454" type="line"/>
      <point x="14" y="142" type="line" smooth="yes"/>
      <point x="14" y="39"/>
      <point x="71" y="-9"/>
      <point x="172" y="-9" type="curve" smooth="yes"/>
      <point x="217" y="-9"/>
      <point x="267" y="8"/>
    </contour>
    <contour>
      <point x="182" y="661" type="curve" smooth="yes"/>
      <point x="125" y="661"/>
      <point x="78" y="615"/>
      <point x="78" y="558" type="curve" smooth="yes"/>
      <point x="78" y="501"/>
      <point x="125" y="454"/>
      <point x="182" y="454" type="curve" smooth="yes"/>
      <point x="239" y="454"/>
      <point x="285" y="501"/>
      <point x="285" y="558" type="curve" smooth="yes"/>
      <point x="285" y="615"/>
      <point x="239" y="661"/>
    </contour>
    <contour>
      <point x="182" y="621" type="curve" smooth="yes"/>
      <point x="217" y="621"/>
      <point x="245" y="593"/>
      <point x="245" y="558" type="curve" smooth="yes"/>
      <point x="245" y="523"/>
      <point x="217" y="494"/>
      <point x="182" y="494" type="curve" smooth="yes"/>
      <point x="147" y="494"/>
      <point x="118" y="523"/>
      <point x="118" y="558" type="curve" smooth="yes"/>
      <point x="118" y="593"/>
      <point x="147" y="621"/>
    </contour>
  </outline>
</glyph>
<glyph name="uhungarumlaut" format="1">
  <advance width="366"/>
  <unicode hex="0171"/>
  <outline>
    <contour>
      <point x="297" y="44" type="curve"/>
      <point x="297" y="0" type="line"/>
      <point x="348" y="0" type="line"/>
      <point x="348" y="454" type="line"/>
      <point x="297" y="454" type="line"/>
      <point x="297" y="156" type="line" smooth="yes"/>
      <point x="297" y="92"/>
      <point x="246" y="40"/>
      <point x="182" y="40" type="curve" smooth="yes"/>
      <point x="124" y="40"/>
      <point x="64" y="62"/>
      <point x="64" y="145" type="curve" smooth="yes"/>
      <point x="64" y="454" type="line"/>
      <point x="13" y="454" type="line"/>
      <point x="13" y="142" type="line" smooth="yes"/>
      <point x="13" y="39"/>
      <point x="70" y="-9"/>
      <point x="171" y="-9" type="curve" smooth="yes"/>
      <point x="216" y="-9"/>
      <point x="266" y="8"/>
    </contour>
    <contour>
      <point x="263" y="591" type="curve" smooth="yes"/>
      <point x="229" y="494" type="line"/>
      <point x="261" y="494" type="line"/>
      <point x="309" y="565" type="line"/>
      <point x="321" y="579"/>
      <point x="319" y="600"/>
      <point x="303" y="609" type="curve" smooth="yes"/>
      <point x="287" y="618"/>
      <point x="269" y="608"/>
    </contour>
    <contour>
      <point x="145" y="591" type="curve" smooth="yes"/>
      <point x="111" y="494" type="line"/>
      <point x="143" y="494" type="line"/>
      <point x="191" y="565" type="line"/>
      <point x="203" y="579"/>
      <point x="201" y="600"/>
      <point x="185" y="609" type="curve" smooth="yes"/>
      <point x="169" y="618"/>
      <point x="151" y="608"/>
    </contour>
  </outline>
</glyph>
<glyph name="caron" format="1">
  <advance width="380"/>
  <unicode hex="02C7"/>
  <outline>
    <contour>
      <point x="290" y="650" type="line"/>
      <point x="255" y="684" type="line"/>
      <point x="170" y="603" type="line"/>
      <point x="89" y="683" type="line"/>
      <point x="54" y="648" type="line"/>
      <point x="170" y="534" type="line"/>
    </contour>
  </outline>
</glyph>
<glyph name="tilde" format="1">
  <advance width="380"/>
  <unicode hex="02DC"/>
  <outline>
    <contour>
      <point x="216" y="631" type="line"/>
      <point x="204" y="621"/>
      <point x="185" y="612"/>
      <point x="168" y="613" type="curve" smooth="yes"/>
      <point x="156" y="613"/>
      <point x="114" y="636"/>
      <point x="70" y="636" type="curve" smooth="yes"/>
      <point x="45" y="636"/>
      <point x="20" y="629"/>
      <point x="-1" y="607" type="curve"/>
      <point x="19" y="565" type="line"/>
      <point x="32" y="575"/>
      <point x="43" y="582"/>
      <point x="60" y="583" type="curve" smooth="yes"/>
      <point x="88" y="585"/>
      <point x="128" y="561"/>
      <point x="170" y="561" type="curve" smooth="yes"/>
      <point x="192" y="561"/>
      <point x="214" y="567"/>
      <point x="235" y="588" type="curve"/>
    </contour>
  </outline>
</glyph>
<glyph name="acutecomb" format="1">
  <advance width="216"/>
  <unicode hex="0301"/>
  <outline>
    <contour>
      <point x="131" y="620" type="line"/>
      <point x="143" y="633"/>
      <point x="141" y="654"/>
      <point x="125" y="663" type="curve" smooth="yes"/>
      <point x="109" y="672"/>
      <point x="91" y="662"/>
      <point x="85" y="645" type="curve" smooth="yes"/>
      <point x="51" y="548" type="line"/>
      <point x="83" y="548" type="line"/>
    </contour>
    <contour>
      <point x="67" y="679" type="move" name="top"/>
    </contour>
    <contour>
      <point x="67" y="501" type="move" name="_top"/>
    </contour>
  </outline>
</glyph>
<glyph name="Iotatonos" format="1">
  <advance width="198"/>
  <unicode hex="038A"/>
  <outline>
    <contour>
      <point x="128" y="0" type="line"/>
      <point x="178" y="0" type="line"/>
      <point x="178" y="635" type="line"/>
      <point x="66" y="635" type="line"/>
      <point x="66" y="590" type="line"/>
      <point x="128" y="588" type="line"/>
    </contour>
    <contour>
      <point x="20" y="731" type="curve" smooth="yes"/>
      <point x="-14" y="634" type="line"/>
      <point x="18" y="634" type="line"/>
      <point x="66" y="706" type="line"/>
      <point x="78" y="719"/>
      <point x="76" y="740"/>
      <point x="60" y="749" type="curve" smooth="yes"/>
      <point x="44" y="758"/>
      <point x="26" y="748"/>
    </contour>
  </outline>
</glyph>
<glyph name="Upsilontonos" format="1">
  <advance width="478"/>
  <unicode hex="038E"/>
  <outline>
    <contour>
      <point x="459" y="141" type="curve" smooth="yes"/>
      <point x="459" y="635" type="line"/>
      <point x="408" y="635" type="line"/>
      <point x="408" y="384" type="line" smooth="yes"/>
      <point x="408" y="345"/>
      <point x="385" y="308"/>
      <point x="350" y="290" type="curve" smooth="yes"/>
      <point x="325" y="278"/>
      <point x="293" y="272"/>
      <point x="256" y="272" type="curve" smooth="yes"/>
      <point x="216" y="272"/>
      <point x="180" y="282"/>
      <point x="150" y="304" type="curve" smooth="yes"/>
      <point x="121" y="327"/>
      <point x="108" y="359"/>
      <point x="108" y="410" type="curve" smooth="yes"/>
      <point x="108" y="635" type="line"/>
      <point x="57" y="635" type="line"/>
      <point x="57" y="420" type="line" smooth="yes"/>
      <point x="57" y="346"/>
      <point x="75" y="300"/>
      <point x="113" y="268" type="curve" smooth="yes"/>
      <point x="150" y="236"/>
      <point x="201" y="219"/>
      <point x="265" y="222" type="curve" smooth="yes"/>
      <point x="347" y="227"/>
      <point x="391" y="259"/>
      <point x="408" y="277" type="curve"/>
      <point x="408" y="138" type="line" smooth="yes"/>
      <point x="408" y="78"/>
      <point x="390" y="41"/>
      <point x="352" y="27" type="curve"/>
      <point x="364" y="-6" type="line"/>
      <point x="425" y="2"/>
      <point x="459" y="53"/>
    </contour>
    <contour>
      <point x="30" y="733" type="curve"/>
      <point x="-5" y="635" type="line"/>
      <point x="27" y="635" type="line"/>
      <point x="76" y="707" type="line"/>
      <point x="87" y="721"/>
      <point x="86" y="742"/>
      <point x="70" y="751" type="curve" smooth="yes"/>
      <point x="54" y="760"/>
      <point x="35" y="750"/>
    </contour>
  </outline>
</glyph>
<glyph name="Iota" format="1">
  <advance width="136"/>
  <unicode hex="0399"/>
  <outline>
    <contour>
      <point x="64" y="0" type="line"/>
      <point x="115" y="0" type="line"/>
      <point x="115" y="635" type="line"/>
      <point x="2" y="635" type="line"/>
      <point x="2" y="590" type="line"/>
      <point x="64" y="588" type="line"/>
    </contour>
  </outline>
</glyph>
<glyph name="Sigma" format="1">
  <advance width="443"/>
  <unicode hex="03A3"/>
  <outline>
    <contour>
      <point x="296" y="45" type="curve" smooth="yes"/>
      <point x="91" y="45" type="line"/>
      <point x="273" y="351" type="line"/>
      <point x="113" y="586" type="line"/>
      <point x="393" y="586" type="line"/>
      <point x="410" y="635" type="line"/>
      <point x="22" y="635" type="line"/>
      <point x="212" y="349" type="line"/>
      <point x="7" y="0" type="line"/>
      <point x="300" y="0" type="line" smooth="yes"/>
      <point x="372" y="0"/>
      <point x="412" y="28"/>
      <point x="431" y="96" type="curve"/>
      <point x="392" y="110" type="line"/>
      <point x="378" y="69"/>
      <point x="343" y="45"/>
    </contour>
  </outline>
</glyph>
<glyph name="gamma" format="1">
  <advance width="425"/>
  <unicode hex="03B3"/>
  <outline>
    <contour>
      <point x="422" y="434" type="curve"/>
      <point x="411" y="443"/>
      <point x="399" y="453"/>
      <point x="388" y="462" type="curve"/>
      <point x="335" y="451"/>
      <point x="315" y="416"/>
      <point x="296" y="351" type="curve" smooth="yes"/>
      <point x="264" y="247"/>
      <point x="233" y="143"/>
      <point x="201" y="39" type="curve"/>
      <point x="180" y="50"/>
      <point x="165" y="68"/>
      <point x="150" y="126" type="curve" smooth="yes"/>
      <point x="118" y="235"/>
      <point x="86" y="344"/>
      <point x="54" y="453" type="curve"/>
      <point x="2" y="453" type="line"/>
      <point x="35" y="341"/>
      <point x="67" y="228"/>
      <point x="100" y="116" type="curve" smooth="yes"/>
      <point x="117" y="64"/>
      <point x="135" y="14"/>
      <point x="186" y="-5" type="curve"/>
      <point x="166" y="-72" type="line" smooth="yes"/>
      <point x="154" y="-111"/>
      <point x="128" y="-140"/>
      <point x="79" y="-141" type="curve"/>
      <point x="88" y="-180" type="line"/>
      <point x="196" y="-177"/>
      <point x="210" y="-92"/>
      <point x="224" y="-53" type="curve"/>
      <point x="342" y="340" type="line" smooth="yes"/>
      <point x="348" y="361"/>
      <point x="370" y="417"/>
    </contour>
  </outline>
</glyph>
<glyph name="upsilontonos" format="1">
  <advance width="362"/>
  <unicode hex="03CD"/>
  <outline>
    <contour>
      <point x="348" y="167" type="curve" smooth="yes"/>
      <point x="348" y="454" type="line"/>
      <point x="299" y="454" type="line"/>
      <point x="299" y="158" type="line" smooth="yes"/>
      <point x="299" y="84"/>
      <point x="259" y="36"/>
      <point x="184" y="36" type="curve" smooth="yes"/>
      <point x="111" y="36"/>
      <point x="64" y="85"/>
      <point x="64" y="158" type="curve" smooth="yes"/>
      <point x="64" y="454" type="line"/>
      <point x="12" y="454" type="line"/>
      <point x="12" y="167" type="line" smooth="yes"/>
      <point x="12" y="68"/>
      <point x="70" y="-9"/>
      <point x="183" y="-9" type="curve" smooth="yes"/>
      <point x="295" y="-9"/>
      <point x="348" y="65"/>
    </contour>
    <contour>
      <point x="202" y="591" type="curve" smooth="yes"/>
      <point x="168" y="494" type="line"/>
      <point x="200" y="494" type="line"/>
      <point x="248" y="565" type="line"/>
      <point x="260" y="579"/>
      <point x="258" y="600"/>
      <point x="242" y="609" type="curve" smooth="yes"/>
      <point x="226" y="618"/>
      <point x="208" y="608"/>
    </contour>
  </outline>
</glyph>
<glyph name="fl" format="1">
  <advance width="300"/>
  <unicode hex="FB02"/>
  <outline>
    <contour>
      <point x="228" y="565" type="curve"/>
      <point x="228" y="0" type="line"/>
      <point x="280" y="0" type="line"/>
      <point x="280" y="596" type="line"/>
      <point x="241" y="627"/>
      <point x="197" y="641"/>
      <point x="157" y="641" type="curve" smooth="yes"/>
      <point x="81" y="641"/>
      <point x="17" y="589"/>
      <point x="20" y="509" type="curve" smooth="yes"/>
      <point x="20" y="0" type="line"/>
      <point x="71" y="0" type="line"/>
      <point x="71" y="405" type="line"/>
      <point x="154" y="405" type="line"/>
      <point x="175" y="453" type="line"/>
      <point x="71" y="453" type="line"/>
      <point x="71" y="498" type="line" smooth="yes"/>
      <point x="71" y="562"/>
      <point x="110" y="587"/>
      <point x="155" y="587" type="curve" smooth="yes"/>
      <point x="174" y="587"/>
      <point x="198" y="581"/>
    </contour>
  </outline>
</glyph>
